<svg xmlns="http://www.w3.org/2000/svg" version="1.1" xmlns:xlink="http://www.w3.org/1999/xlink" xmlns:svgjs="http://svgjs.dev/svgjs" viewBox="0 0 1920 1080"><rect width="1920" height="1080" fill="#70808f"></rect><g transform="matrix(0.8131727983645296,0.8131727983645295,-0.8131727983645295,0.8131727983645296,612.9701897875605,-655.8322648130747)"><path d="M0,-1080C11.829948092410257,-983.6614995039588,80.57482451408148,-707.1896813930124,70.97968855446155,-501.96899702375276C61.38455259484161,-296.74831265449313,-46.365616730844245,-61.78904371486871,-57.57081575771963,151.32410621555772C-68.77601478459502,364.4372561459842,-2.7650697607446917,534.2534916904218,3.748494393209242,776.7099025588058C10.262058547163175,1019.1663134271897,-17.86468176846115,1375.5142218523295,-18.489430833996025,1606.0625714258617C-19.1141798995309,1836.610920999394,-3.081571805666004,2067.6770952376437,0,2160L 1920 2160 L 1920 -1080 Z" fill="url(&quot;#SvgjsLinearGradient1115&quot;)"></path><path d="M213.33333333333331,-1080C207.84674200831904,-942.8257644025881,185.75872587609302,-523.2471260323471,180.41378538324776,-256.9545864155284C175.0688448904025,9.337953201290247,191.276277375624,247.31140724050687,181.26369037626176,517.7552377009121C171.25110337689952,788.1990681613172,114.99332289422904,1092.0009359637215,120.33826338707429,1365.7083963469029C125.68320387991955,1639.4158567300842,197.8341550089568,2027.618066057817,213.33333333333331,2160L 1920 2160 L 1920 -1080 Z" fill="url(&quot;#SvgjsLinearGradient1116&quot;)"></path><path d="M426.66666666666663,-1080C411.29471234140516,-969.6144770926375,321.27159494749696,-630.9117997183657,334.4349407150979,-417.6868625558245C347.5982864826989,-204.46192539328334,506.1590866479462,-22.047951450866464,505.6467412722725,199.34962297524712C505.1343958965988,420.7471974013607,349.8107014432387,702.7571387554246,331.36086846105553,910.698584000857C312.91103547887235,1118.6400292462893,379.0634436782384,1238.7813917813173,394.9477433791736,1446.998294447841C410.83204308010875,1655.2151971143649,421.38017945208446,2041.1663824079735,426.66666666666663,2160L 1920 2160 L 1920 -1080 Z" fill="url(&quot;#SvgjsLinearGradient1117&quot;)"></path><path d="M640,-1080C639.4811486867007,-974.6075976615265,650.1845463225341,-636.6014454465133,636.8868921202045,-447.645585969159C623.5892379178749,-258.6897264918048,574.4620724218586,-116.49564192228218,560.2140747860223,53.73515686412574C545.9660771501859,223.96595565053366,531.3189000952488,419.0997275196935,551.3989063051864,573.7392067492885C571.4789125151241,728.3786859788836,656.4556163338307,824.4184030501833,680.694112045648,981.572032241696C704.9326077574653,1138.7256614332086,703.6122325836988,1320.2563206053142,696.8298805760908,1516.6609818983648C690.0475285684828,1713.0656431914153,649.4716467626818,2052.776830316394,640,2160L 1920 2160 L 1920 -1080 Z" fill="url(&quot;#SvgjsLinearGradient1118&quot;)"></path><path d="M853.3333333333333,-1080C864.9751500270927,-995.5571593522294,915.3659643236159,-731.3800331845766,923.1842334958902,-573.3429561133764C931.0025026681645,-415.30587904217623,908.1838725457216,-279.91957913648014,900.2429483669792,-131.7775375727985C892.3020241882369,16.364503990883094,869.2944787664069,166.02845112119326,875.5386884234364,315.50929326871324C881.7828980804659,464.9901354162332,932.8595723069801,595.0344583755455,937.7082063091561,765.1075153123214C942.5568403113322,935.1805722490974,911.7246380117438,1169.7121557918902,904.6304924364927,1335.947634889369C897.5363468612416,1502.183113986848,903.6928593748424,1625.1783290454225,895.1433328576492,1762.5203898971943C886.5938063404559,1899.862450748966,860.3016665873859,2093.753398316199,853.3333333333333,2160L 1920 2160 L 1920 -1080 Z" fill="url(&quot;#SvgjsLinearGradient1119&quot;)"></path><path d="M1066.6666666666667,-1080C1067.3526848577412,-988.2083465149401,1085.4724354749546,-725.2474862898365,1070.7827758131132,-529.2500790896407C1056.0931161512717,-333.25267188944497,992.9172874805454,-97.95981729401962,978.5287086956175,95.98444320117454C964.1401299106897,289.9287036963687,978.2594066519079,460.94988412520684,984.4513031035457,634.4154838815243C990.6431995551835,807.8810836378418,992.5694421507269,967.0956157100322,1015.6800874054446,1136.7780417390795C1038.7907326601623,1306.4604677681268,1114.617411421648,1481.9730470123213,1123.1151746318517,1652.510040055808C1131.6129378420553,1823.0470330992948,1076.074751327531,2075.4183400093016,1066.6666666666667,2160L 1920 2160 L 1920 -1080 Z" fill="url(&quot;#SvgjsLinearGradient1120&quot;)"></path><path d="M1280,-1080C1264.0542849814215,-995.272646424796,1188.7174881574583,-696.2576600663783,1184.3257098885283,-571.6358785487762C1179.9339316195983,-447.0140970311741,1238.582960689765,-458.92098287835285,1253.6493303864204,-332.26931089438756C1268.7157000830757,-205.61763891042227,1255.7013228205328,35.13711693625592,1274.7239280684603,188.27415335501553C1293.7465333163877,341.41118977377516,1381.1185087870654,461.12337533962994,1367.784961873985,586.5529076181701C1354.4514149609045,711.9824398967103,1222.5364822349823,817.579949389393,1194.7226465899769,940.8513470262567C1166.9088109449715,1064.1227446631203,1190.645831403817,1175.8233735096533,1200.9019480039524,1326.1812934393522C1211.1580646040877,1476.5392133690511,1243.0763375247814,1704.0290821776755,1256.2593461907893,1842.99886660445C1269.4423548567972,1981.9686510312247,1276.0432243651317,2107.166477767408,1280,2160L 1920 2160 L 1920 -1080 Z" fill="url(&quot;#SvgjsLinearGradient1121&quot;)"></path><path d="M1493.3333333333333,-1080C1487.3034466676372,-1021.2408349917421,1455.2989811126545,-846.5938855750221,1457.1540133391572,-727.4450099504522C1459.00904556566,-608.2961343258823,1492.5478760003648,-496.6196285790553,1504.46352669235,-365.1067462525806C1516.379177384335,-233.5938639261059,1517.5327289568975,-99.75966371862401,1528.6479174910683,61.63228400839594C1539.763106025239,223.0242317354159,1564.2061092270676,463.6991800504734,1571.1546578973748,603.2449401095391C1578.103206567682,742.7907001686049,1600.2827631545126,763.8312922503944,1570.339209512911,898.9068443627901C1540.3956558713096,1033.9823964751859,1418.4906158033953,1282.8290369649883,1391.493336047766,1413.6982527839136C1364.4960562921367,1544.567468602839,1391.3821980982077,1559.7385147403284,1408.3555309791357,1684.1221392763428C1425.3288638600636,1808.5057638123571,1479.1703662743002,2080.687023212724,1493.3333333333333,2160L 1920 2160 L 1920 -1080 Z" fill="url(&quot;#SvgjsLinearGradient1122&quot;)"></path><path d="M1706.6666666666665,-1080C1722.1234236689338,-987.1557915638879,1815.2219401992115,-726.9283931204332,1799.407208680271,-522.9347493833271C1783.5924771613304,-318.9411056462211,1637.5626463316767,-72.50682107505037,1611.7782775530234,143.96186242263636C1585.99390877437,360.4305459203231,1638.8493553507597,542.8208032228315,1644.700996008351,775.8773516027933C1650.5526366659424,1008.9338999827551,1636.560509722185,1311.6140446362058,1646.888121498571,1542.3011527024069C1657.215733274957,1772.988260768608,1696.7035758053173,2057.050192117068,1706.6666666666665,2160L 1920 2160 L 1920 -1080 Z" fill="url(&quot;#SvgjsLinearGradient1123&quot;)"></path></g><defs><linearGradient x1="0.1" y1="0" x2="0" y2="1" id="SvgjsLinearGradient1115"><stop stop-color="#70808f" offset="0"></stop><stop stop-color="#70858f" offset="0"></stop></linearGradient><linearGradient x1="0.1" y1="0" x2="0" y2="1" id="SvgjsLinearGradient1116"><stop stop-color="#808e9c" offset="0"></stop><stop stop-color="#80939c" offset="0.1111111111111111"></stop></linearGradient><linearGradient x1="0.1" y1="0" x2="0" y2="1" id="SvgjsLinearGradient1117"><stop stop-color="#909da8" offset="0"></stop><stop stop-color="#90a1a8" offset="0.2222222222222222"></stop></linearGradient><linearGradient x1="0.1" y1="0" x2="0" y2="1" id="SvgjsLinearGradient1118"><stop stop-color="#a1abb5" offset="0"></stop><stop stop-color="#a1aeb5" offset="0.3333333333333333"></stop></linearGradient><linearGradient x1="0.1" y1="0" x2="0" y2="1" id="SvgjsLinearGradient1119"><stop stop-color="#b1bac2" offset="0"></stop><stop stop-color="#b1bdc2" offset="0.4444444444444444"></stop></linearGradient><linearGradient x1="0.1" y1="0" x2="0" y2="1" id="SvgjsLinearGradient1120"><stop stop-color="#c1c8ce" offset="0"></stop><stop stop-color="#c1cace" offset="0.5555555555555556"></stop></linearGradient><linearGradient x1="0.1" y1="0" x2="0" y2="1" id="SvgjsLinearGradient1121"><stop stop-color="#d1d6db" offset="0"></stop><stop stop-color="#d1d8db" offset="0.6666666666666666"></stop></linearGradient><linearGradient x1="0.1" y1="0" x2="0" y2="1" id="SvgjsLinearGradient1122"><stop stop-color="#e1e5e8" offset="0"></stop><stop stop-color="#e1e6e8" offset="0.7777777777777778"></stop></linearGradient><linearGradient x1="0.1" y1="0" x2="0" y2="1" id="SvgjsLinearGradient1123"><stop stop-color="#f2f3f5" offset="0"></stop><stop stop-color="#f2f3f5" offset="0.8888888888888888"></stop></linearGradient></defs></svg>